<svg width="100" height="100" viewBox="0 0 100 100" fill="none" xmlns="http://www.w3.org/2000/svg">
<g clip-path="url(#clip0_606_3)">
<rect width="100" height="100" rx="10" fill="white"/>
<rect width="100" height="100" fill="#D9D9D9"/>
<path d="M51.696 76.832C45.744 76.832 42.736 74.336 40.944 70.56V76H32.56V29.28H41.2V47.84C42.992 44.32 46 42.016 51.696 42.016C60.848 42.016 68.144 49.888 68.144 59.488C68.144 69.088 60.848 76.832 51.696 76.832ZM40.944 59.488C40.944 64.672 44.592 69.024 50.288 69.024C55.792 69.024 59.504 64.48 59.504 59.424C59.504 54.24 55.792 49.824 50.288 49.824C44.592 49.824 40.944 54.304 40.944 59.488Z" fill="black"/>
</g>
<defs>
<clipPath id="clip0_606_3">
<rect width="100" height="100" rx="10" fill="white"/>
</clipPath>
</defs>
</svg>
